<?xml version="1.0" encoding="utf-8" standalone="no"?>
<!DOCTYPE svg PUBLIC "-//W3C//DTD SVG 1.1//EN"
  "http://www.w3.org/Graphics/SVG/1.1/DTD/svg11.dtd">
<svg xmlns:xlink="http://www.w3.org/1999/xlink" width="414.46375pt" height="310.86825pt" viewBox="0 0 414.46375 310.86825" xmlns="http://www.w3.org/2000/svg" version="1.1">
 <metadata>
  <rdf:RDF xmlns:dc="http://purl.org/dc/elements/1.1/" xmlns:cc="http://creativecommons.org/ns#" xmlns:rdf="http://www.w3.org/1999/02/22-rdf-syntax-ns#">
   <cc:Work>
    <dc:type rdf:resource="http://purl.org/dc/dcmitype/StillImage"/>
    <dc:date>2023-04-16T23:58:44.593167</dc:date>
    <dc:format>image/svg+xml</dc:format>
    <dc:creator>
     <cc:Agent>
      <dc:title>Matplotlib v3.6.3, https://matplotlib.org/</dc:title>
     </cc:Agent>
    </dc:creator>
   </cc:Work>
  </rdf:RDF>
 </metadata>
 <defs>
  <style type="text/css">*{stroke-linejoin: round; stroke-linecap: butt}</style>
 </defs>
 <g id="figure_1">
  <g id="patch_1">
   <path d="M 0 310.86825 
L 414.46375 310.86825 
L 414.46375 0 
L 0 0 
z
" style="fill: #ffffff"/>
  </g>
  <g id="axes_1">
   <g id="patch_2">
    <path d="M 50.14375 273.312 
L 407.26375 273.312 
L 407.26375 7.2 
L 50.14375 7.2 
z
" style="fill: #ffffff"/>
   </g>
   <g id="PolyCollection_1"/>
   <g id="PolyCollection_2"/>
   <g id="matplotlib.axis_1">
    <g id="xtick_1">
     <g id="line2d_1">
      <defs>
       <path id="med11017b26" d="M 0 0 
L 0 3.5 
" style="stroke: #000000; stroke-width: 0.8"/>
      </defs>
      <g>
       <use xlink:href="#med11017b26" x="66.376477" y="273.312" style="stroke: #000000; stroke-width: 0.8"/>
      </g>
     </g>
     <g id="text_1">
      <!-- 0 -->
      <g transform="translate(63.195227 287.910437) scale(0.1 -0.1)">
       <defs>
        <path id="DejaVuSans-30" d="M 2034 4250 
Q 1547 4250 1301 3770 
Q 1056 3291 1056 2328 
Q 1056 1369 1301 889 
Q 1547 409 2034 409 
Q 2525 409 2770 889 
Q 3016 1369 3016 2328 
Q 3016 3291 2770 3770 
Q 2525 4250 2034 4250 
z
M 2034 4750 
Q 2819 4750 3233 4129 
Q 3647 3509 3647 2328 
Q 3647 1150 3233 529 
Q 2819 -91 2034 -91 
Q 1250 -91 836 529 
Q 422 1150 422 2328 
Q 422 3509 836 4129 
Q 1250 4750 2034 4750 
z
" transform="scale(0.015625)"/>
       </defs>
       <use xlink:href="#DejaVuSans-30"/>
      </g>
     </g>
    </g>
    <g id="xtick_2">
     <g id="line2d_2">
      <g>
       <use xlink:href="#med11017b26" x="136.876921" y="273.312" style="stroke: #000000; stroke-width: 0.8"/>
      </g>
     </g>
     <g id="text_2">
      <!-- 200 -->
      <g transform="translate(127.333171 287.910437) scale(0.1 -0.1)">
       <defs>
        <path id="DejaVuSans-32" d="M 1228 531 
L 3431 531 
L 3431 0 
L 469 0 
L 469 531 
Q 828 903 1448 1529 
Q 2069 2156 2228 2338 
Q 2531 2678 2651 2914 
Q 2772 3150 2772 3378 
Q 2772 3750 2511 3984 
Q 2250 4219 1831 4219 
Q 1534 4219 1204 4116 
Q 875 4013 500 3803 
L 500 4441 
Q 881 4594 1212 4672 
Q 1544 4750 1819 4750 
Q 2544 4750 2975 4387 
Q 3406 4025 3406 3419 
Q 3406 3131 3298 2873 
Q 3191 2616 2906 2266 
Q 2828 2175 2409 1742 
Q 1991 1309 1228 531 
z
" transform="scale(0.015625)"/>
       </defs>
       <use xlink:href="#DejaVuSans-32"/>
       <use xlink:href="#DejaVuSans-30" x="63.623047"/>
       <use xlink:href="#DejaVuSans-30" x="127.246094"/>
      </g>
     </g>
    </g>
    <g id="xtick_3">
     <g id="line2d_3">
      <g>
       <use xlink:href="#med11017b26" x="207.377366" y="273.312" style="stroke: #000000; stroke-width: 0.8"/>
      </g>
     </g>
     <g id="text_3">
      <!-- 400 -->
      <g transform="translate(197.833616 287.910437) scale(0.1 -0.1)">
       <defs>
        <path id="DejaVuSans-34" d="M 2419 4116 
L 825 1625 
L 2419 1625 
L 2419 4116 
z
M 2253 4666 
L 3047 4666 
L 3047 1625 
L 3713 1625 
L 3713 1100 
L 3047 1100 
L 3047 0 
L 2419 0 
L 2419 1100 
L 313 1100 
L 313 1709 
L 2253 4666 
z
" transform="scale(0.015625)"/>
       </defs>
       <use xlink:href="#DejaVuSans-34"/>
       <use xlink:href="#DejaVuSans-30" x="63.623047"/>
       <use xlink:href="#DejaVuSans-30" x="127.246094"/>
      </g>
     </g>
    </g>
    <g id="xtick_4">
     <g id="line2d_4">
      <g>
       <use xlink:href="#med11017b26" x="277.87781" y="273.312" style="stroke: #000000; stroke-width: 0.8"/>
      </g>
     </g>
     <g id="text_4">
      <!-- 600 -->
      <g transform="translate(268.33406 287.910437) scale(0.1 -0.1)">
       <defs>
        <path id="DejaVuSans-36" d="M 2113 2584 
Q 1688 2584 1439 2293 
Q 1191 2003 1191 1497 
Q 1191 994 1439 701 
Q 1688 409 2113 409 
Q 2538 409 2786 701 
Q 3034 994 3034 1497 
Q 3034 2003 2786 2293 
Q 2538 2584 2113 2584 
z
M 3366 4563 
L 3366 3988 
Q 3128 4100 2886 4159 
Q 2644 4219 2406 4219 
Q 1781 4219 1451 3797 
Q 1122 3375 1075 2522 
Q 1259 2794 1537 2939 
Q 1816 3084 2150 3084 
Q 2853 3084 3261 2657 
Q 3669 2231 3669 1497 
Q 3669 778 3244 343 
Q 2819 -91 2113 -91 
Q 1303 -91 875 529 
Q 447 1150 447 2328 
Q 447 3434 972 4092 
Q 1497 4750 2381 4750 
Q 2619 4750 2861 4703 
Q 3103 4656 3366 4563 
z
" transform="scale(0.015625)"/>
       </defs>
       <use xlink:href="#DejaVuSans-36"/>
       <use xlink:href="#DejaVuSans-30" x="63.623047"/>
       <use xlink:href="#DejaVuSans-30" x="127.246094"/>
      </g>
     </g>
    </g>
    <g id="xtick_5">
     <g id="line2d_5">
      <g>
       <use xlink:href="#med11017b26" x="348.378254" y="273.312" style="stroke: #000000; stroke-width: 0.8"/>
      </g>
     </g>
     <g id="text_5">
      <!-- 800 -->
      <g transform="translate(338.834504 287.910437) scale(0.1 -0.1)">
       <defs>
        <path id="DejaVuSans-38" d="M 2034 2216 
Q 1584 2216 1326 1975 
Q 1069 1734 1069 1313 
Q 1069 891 1326 650 
Q 1584 409 2034 409 
Q 2484 409 2743 651 
Q 3003 894 3003 1313 
Q 3003 1734 2745 1975 
Q 2488 2216 2034 2216 
z
M 1403 2484 
Q 997 2584 770 2862 
Q 544 3141 544 3541 
Q 544 4100 942 4425 
Q 1341 4750 2034 4750 
Q 2731 4750 3128 4425 
Q 3525 4100 3525 3541 
Q 3525 3141 3298 2862 
Q 3072 2584 2669 2484 
Q 3125 2378 3379 2068 
Q 3634 1759 3634 1313 
Q 3634 634 3220 271 
Q 2806 -91 2034 -91 
Q 1263 -91 848 271 
Q 434 634 434 1313 
Q 434 1759 690 2068 
Q 947 2378 1403 2484 
z
M 1172 3481 
Q 1172 3119 1398 2916 
Q 1625 2713 2034 2713 
Q 2441 2713 2670 2916 
Q 2900 3119 2900 3481 
Q 2900 3844 2670 4047 
Q 2441 4250 2034 4250 
Q 1625 4250 1398 4047 
Q 1172 3844 1172 3481 
z
" transform="scale(0.015625)"/>
       </defs>
       <use xlink:href="#DejaVuSans-38"/>
       <use xlink:href="#DejaVuSans-30" x="63.623047"/>
       <use xlink:href="#DejaVuSans-30" x="127.246094"/>
      </g>
     </g>
    </g>
    <g id="text_6">
     <!-- Request Number -->
     <g transform="translate(186.718594 301.588562) scale(0.1 -0.1)">
      <defs>
       <path id="DejaVuSans-52" d="M 2841 2188 
Q 3044 2119 3236 1894 
Q 3428 1669 3622 1275 
L 4263 0 
L 3584 0 
L 2988 1197 
Q 2756 1666 2539 1819 
Q 2322 1972 1947 1972 
L 1259 1972 
L 1259 0 
L 628 0 
L 628 4666 
L 2053 4666 
Q 2853 4666 3247 4331 
Q 3641 3997 3641 3322 
Q 3641 2881 3436 2590 
Q 3231 2300 2841 2188 
z
M 1259 4147 
L 1259 2491 
L 2053 2491 
Q 2509 2491 2742 2702 
Q 2975 2913 2975 3322 
Q 2975 3731 2742 3939 
Q 2509 4147 2053 4147 
L 1259 4147 
z
" transform="scale(0.015625)"/>
       <path id="DejaVuSans-65" d="M 3597 1894 
L 3597 1613 
L 953 1613 
Q 991 1019 1311 708 
Q 1631 397 2203 397 
Q 2534 397 2845 478 
Q 3156 559 3463 722 
L 3463 178 
Q 3153 47 2828 -22 
Q 2503 -91 2169 -91 
Q 1331 -91 842 396 
Q 353 884 353 1716 
Q 353 2575 817 3079 
Q 1281 3584 2069 3584 
Q 2775 3584 3186 3129 
Q 3597 2675 3597 1894 
z
M 3022 2063 
Q 3016 2534 2758 2815 
Q 2500 3097 2075 3097 
Q 1594 3097 1305 2825 
Q 1016 2553 972 2059 
L 3022 2063 
z
" transform="scale(0.015625)"/>
       <path id="DejaVuSans-71" d="M 947 1747 
Q 947 1113 1208 752 
Q 1469 391 1925 391 
Q 2381 391 2643 752 
Q 2906 1113 2906 1747 
Q 2906 2381 2643 2742 
Q 2381 3103 1925 3103 
Q 1469 3103 1208 2742 
Q 947 2381 947 1747 
z
M 2906 525 
Q 2725 213 2448 61 
Q 2172 -91 1784 -91 
Q 1150 -91 751 415 
Q 353 922 353 1747 
Q 353 2572 751 3078 
Q 1150 3584 1784 3584 
Q 2172 3584 2448 3432 
Q 2725 3281 2906 2969 
L 2906 3500 
L 3481 3500 
L 3481 -1331 
L 2906 -1331 
L 2906 525 
z
" transform="scale(0.015625)"/>
       <path id="DejaVuSans-75" d="M 544 1381 
L 544 3500 
L 1119 3500 
L 1119 1403 
Q 1119 906 1312 657 
Q 1506 409 1894 409 
Q 2359 409 2629 706 
Q 2900 1003 2900 1516 
L 2900 3500 
L 3475 3500 
L 3475 0 
L 2900 0 
L 2900 538 
Q 2691 219 2414 64 
Q 2138 -91 1772 -91 
Q 1169 -91 856 284 
Q 544 659 544 1381 
z
M 1991 3584 
L 1991 3584 
z
" transform="scale(0.015625)"/>
       <path id="DejaVuSans-73" d="M 2834 3397 
L 2834 2853 
Q 2591 2978 2328 3040 
Q 2066 3103 1784 3103 
Q 1356 3103 1142 2972 
Q 928 2841 928 2578 
Q 928 2378 1081 2264 
Q 1234 2150 1697 2047 
L 1894 2003 
Q 2506 1872 2764 1633 
Q 3022 1394 3022 966 
Q 3022 478 2636 193 
Q 2250 -91 1575 -91 
Q 1294 -91 989 -36 
Q 684 19 347 128 
L 347 722 
Q 666 556 975 473 
Q 1284 391 1588 391 
Q 1994 391 2212 530 
Q 2431 669 2431 922 
Q 2431 1156 2273 1281 
Q 2116 1406 1581 1522 
L 1381 1569 
Q 847 1681 609 1914 
Q 372 2147 372 2553 
Q 372 3047 722 3315 
Q 1072 3584 1716 3584 
Q 2034 3584 2315 3537 
Q 2597 3491 2834 3397 
z
" transform="scale(0.015625)"/>
       <path id="DejaVuSans-74" d="M 1172 4494 
L 1172 3500 
L 2356 3500 
L 2356 3053 
L 1172 3053 
L 1172 1153 
Q 1172 725 1289 603 
Q 1406 481 1766 481 
L 2356 481 
L 2356 0 
L 1766 0 
Q 1100 0 847 248 
Q 594 497 594 1153 
L 594 3053 
L 172 3053 
L 172 3500 
L 594 3500 
L 594 4494 
L 1172 4494 
z
" transform="scale(0.015625)"/>
       <path id="DejaVuSans-20" transform="scale(0.015625)"/>
       <path id="DejaVuSans-4e" d="M 628 4666 
L 1478 4666 
L 3547 763 
L 3547 4666 
L 4159 4666 
L 4159 0 
L 3309 0 
L 1241 3903 
L 1241 0 
L 628 0 
L 628 4666 
z
" transform="scale(0.015625)"/>
       <path id="DejaVuSans-6d" d="M 3328 2828 
Q 3544 3216 3844 3400 
Q 4144 3584 4550 3584 
Q 5097 3584 5394 3201 
Q 5691 2819 5691 2113 
L 5691 0 
L 5113 0 
L 5113 2094 
Q 5113 2597 4934 2840 
Q 4756 3084 4391 3084 
Q 3944 3084 3684 2787 
Q 3425 2491 3425 1978 
L 3425 0 
L 2847 0 
L 2847 2094 
Q 2847 2600 2669 2842 
Q 2491 3084 2119 3084 
Q 1678 3084 1418 2786 
Q 1159 2488 1159 1978 
L 1159 0 
L 581 0 
L 581 3500 
L 1159 3500 
L 1159 2956 
Q 1356 3278 1631 3431 
Q 1906 3584 2284 3584 
Q 2666 3584 2933 3390 
Q 3200 3197 3328 2828 
z
" transform="scale(0.015625)"/>
       <path id="DejaVuSans-62" d="M 3116 1747 
Q 3116 2381 2855 2742 
Q 2594 3103 2138 3103 
Q 1681 3103 1420 2742 
Q 1159 2381 1159 1747 
Q 1159 1113 1420 752 
Q 1681 391 2138 391 
Q 2594 391 2855 752 
Q 3116 1113 3116 1747 
z
M 1159 2969 
Q 1341 3281 1617 3432 
Q 1894 3584 2278 3584 
Q 2916 3584 3314 3078 
Q 3713 2572 3713 1747 
Q 3713 922 3314 415 
Q 2916 -91 2278 -91 
Q 1894 -91 1617 61 
Q 1341 213 1159 525 
L 1159 0 
L 581 0 
L 581 4863 
L 1159 4863 
L 1159 2969 
z
" transform="scale(0.015625)"/>
       <path id="DejaVuSans-72" d="M 2631 2963 
Q 2534 3019 2420 3045 
Q 2306 3072 2169 3072 
Q 1681 3072 1420 2755 
Q 1159 2438 1159 1844 
L 1159 0 
L 581 0 
L 581 3500 
L 1159 3500 
L 1159 2956 
Q 1341 3275 1631 3429 
Q 1922 3584 2338 3584 
Q 2397 3584 2469 3576 
Q 2541 3569 2628 3553 
L 2631 2963 
z
" transform="scale(0.015625)"/>
      </defs>
      <use xlink:href="#DejaVuSans-52"/>
      <use xlink:href="#DejaVuSans-65" x="64.982422"/>
      <use xlink:href="#DejaVuSans-71" x="126.505859"/>
      <use xlink:href="#DejaVuSans-75" x="189.982422"/>
      <use xlink:href="#DejaVuSans-65" x="253.361328"/>
      <use xlink:href="#DejaVuSans-73" x="314.884766"/>
      <use xlink:href="#DejaVuSans-74" x="366.984375"/>
      <use xlink:href="#DejaVuSans-20" x="406.193359"/>
      <use xlink:href="#DejaVuSans-4e" x="437.980469"/>
      <use xlink:href="#DejaVuSans-75" x="512.785156"/>
      <use xlink:href="#DejaVuSans-6d" x="576.164062"/>
      <use xlink:href="#DejaVuSans-62" x="673.576172"/>
      <use xlink:href="#DejaVuSans-65" x="737.052734"/>
      <use xlink:href="#DejaVuSans-72" x="798.576172"/>
     </g>
    </g>
   </g>
   <g id="matplotlib.axis_2">
    <g id="ytick_1">
     <g id="line2d_6">
      <defs>
       <path id="m0b969bea71" d="M 0 0 
L -3.5 0 
" style="stroke: #000000; stroke-width: 0.8"/>
      </defs>
      <g>
       <use xlink:href="#m0b969bea71" x="50.14375" y="231.648811" style="stroke: #000000; stroke-width: 0.8"/>
      </g>
     </g>
     <g id="text_7">
      <!-- 0.38 -->
      <g transform="translate(20.878125 235.44803) scale(0.1 -0.1)">
       <defs>
        <path id="DejaVuSans-2e" d="M 684 794 
L 1344 794 
L 1344 0 
L 684 0 
L 684 794 
z
" transform="scale(0.015625)"/>
        <path id="DejaVuSans-33" d="M 2597 2516 
Q 3050 2419 3304 2112 
Q 3559 1806 3559 1356 
Q 3559 666 3084 287 
Q 2609 -91 1734 -91 
Q 1441 -91 1130 -33 
Q 819 25 488 141 
L 488 750 
Q 750 597 1062 519 
Q 1375 441 1716 441 
Q 2309 441 2620 675 
Q 2931 909 2931 1356 
Q 2931 1769 2642 2001 
Q 2353 2234 1838 2234 
L 1294 2234 
L 1294 2753 
L 1863 2753 
Q 2328 2753 2575 2939 
Q 2822 3125 2822 3475 
Q 2822 3834 2567 4026 
Q 2313 4219 1838 4219 
Q 1578 4219 1281 4162 
Q 984 4106 628 3988 
L 628 4550 
Q 988 4650 1302 4700 
Q 1616 4750 1894 4750 
Q 2613 4750 3031 4423 
Q 3450 4097 3450 3541 
Q 3450 3153 3228 2886 
Q 3006 2619 2597 2516 
z
" transform="scale(0.015625)"/>
       </defs>
       <use xlink:href="#DejaVuSans-30"/>
       <use xlink:href="#DejaVuSans-2e" x="63.623047"/>
       <use xlink:href="#DejaVuSans-33" x="95.410156"/>
       <use xlink:href="#DejaVuSans-38" x="159.033203"/>
      </g>
     </g>
    </g>
    <g id="ytick_2">
     <g id="line2d_7">
      <g>
       <use xlink:href="#m0b969bea71" x="50.14375" y="189.896452" style="stroke: #000000; stroke-width: 0.8"/>
      </g>
     </g>
     <g id="text_8">
      <!-- 0.39 -->
      <g transform="translate(20.878125 193.695671) scale(0.1 -0.1)">
       <defs>
        <path id="DejaVuSans-39" d="M 703 97 
L 703 672 
Q 941 559 1184 500 
Q 1428 441 1663 441 
Q 2288 441 2617 861 
Q 2947 1281 2994 2138 
Q 2813 1869 2534 1725 
Q 2256 1581 1919 1581 
Q 1219 1581 811 2004 
Q 403 2428 403 3163 
Q 403 3881 828 4315 
Q 1253 4750 1959 4750 
Q 2769 4750 3195 4129 
Q 3622 3509 3622 2328 
Q 3622 1225 3098 567 
Q 2575 -91 1691 -91 
Q 1453 -91 1209 -44 
Q 966 3 703 97 
z
M 1959 2075 
Q 2384 2075 2632 2365 
Q 2881 2656 2881 3163 
Q 2881 3666 2632 3958 
Q 2384 4250 1959 4250 
Q 1534 4250 1286 3958 
Q 1038 3666 1038 3163 
Q 1038 2656 1286 2365 
Q 1534 2075 1959 2075 
z
" transform="scale(0.015625)"/>
       </defs>
       <use xlink:href="#DejaVuSans-30"/>
       <use xlink:href="#DejaVuSans-2e" x="63.623047"/>
       <use xlink:href="#DejaVuSans-33" x="95.410156"/>
       <use xlink:href="#DejaVuSans-39" x="159.033203"/>
      </g>
     </g>
    </g>
    <g id="ytick_3">
     <g id="line2d_8">
      <g>
       <use xlink:href="#m0b969bea71" x="50.14375" y="148.144092" style="stroke: #000000; stroke-width: 0.8"/>
      </g>
     </g>
     <g id="text_9">
      <!-- 0.40 -->
      <g transform="translate(20.878125 151.943311) scale(0.1 -0.1)">
       <use xlink:href="#DejaVuSans-30"/>
       <use xlink:href="#DejaVuSans-2e" x="63.623047"/>
       <use xlink:href="#DejaVuSans-34" x="95.410156"/>
       <use xlink:href="#DejaVuSans-30" x="159.033203"/>
      </g>
     </g>
    </g>
    <g id="ytick_4">
     <g id="line2d_9">
      <g>
       <use xlink:href="#m0b969bea71" x="50.14375" y="106.391733" style="stroke: #000000; stroke-width: 0.8"/>
      </g>
     </g>
     <g id="text_10">
      <!-- 0.41 -->
      <g transform="translate(20.878125 110.190951) scale(0.1 -0.1)">
       <defs>
        <path id="DejaVuSans-31" d="M 794 531 
L 1825 531 
L 1825 4091 
L 703 3866 
L 703 4441 
L 1819 4666 
L 2450 4666 
L 2450 531 
L 3481 531 
L 3481 0 
L 794 0 
L 794 531 
z
" transform="scale(0.015625)"/>
       </defs>
       <use xlink:href="#DejaVuSans-30"/>
       <use xlink:href="#DejaVuSans-2e" x="63.623047"/>
       <use xlink:href="#DejaVuSans-34" x="95.410156"/>
       <use xlink:href="#DejaVuSans-31" x="159.033203"/>
      </g>
     </g>
    </g>
    <g id="ytick_5">
     <g id="line2d_10">
      <g>
       <use xlink:href="#m0b969bea71" x="50.14375" y="64.639373" style="stroke: #000000; stroke-width: 0.8"/>
      </g>
     </g>
     <g id="text_11">
      <!-- 0.42 -->
      <g transform="translate(20.878125 68.438592) scale(0.1 -0.1)">
       <use xlink:href="#DejaVuSans-30"/>
       <use xlink:href="#DejaVuSans-2e" x="63.623047"/>
       <use xlink:href="#DejaVuSans-34" x="95.410156"/>
       <use xlink:href="#DejaVuSans-32" x="159.033203"/>
      </g>
     </g>
    </g>
    <g id="ytick_6">
     <g id="line2d_11">
      <g>
       <use xlink:href="#m0b969bea71" x="50.14375" y="22.887013" style="stroke: #000000; stroke-width: 0.8"/>
      </g>
     </g>
     <g id="text_12">
      <!-- 0.43 -->
      <g transform="translate(20.878125 26.686232) scale(0.1 -0.1)">
       <use xlink:href="#DejaVuSans-30"/>
       <use xlink:href="#DejaVuSans-2e" x="63.623047"/>
       <use xlink:href="#DejaVuSans-34" x="95.410156"/>
       <use xlink:href="#DejaVuSans-33" x="159.033203"/>
      </g>
     </g>
    </g>
    <g id="text_13">
     <!-- Average Response Time (s) -->
     <g transform="translate(14.798438 208.309906) rotate(-90) scale(0.1 -0.1)">
      <defs>
       <path id="DejaVuSans-41" d="M 2188 4044 
L 1331 1722 
L 3047 1722 
L 2188 4044 
z
M 1831 4666 
L 2547 4666 
L 4325 0 
L 3669 0 
L 3244 1197 
L 1141 1197 
L 716 0 
L 50 0 
L 1831 4666 
z
" transform="scale(0.015625)"/>
       <path id="DejaVuSans-76" d="M 191 3500 
L 800 3500 
L 1894 563 
L 2988 3500 
L 3597 3500 
L 2284 0 
L 1503 0 
L 191 3500 
z
" transform="scale(0.015625)"/>
       <path id="DejaVuSans-61" d="M 2194 1759 
Q 1497 1759 1228 1600 
Q 959 1441 959 1056 
Q 959 750 1161 570 
Q 1363 391 1709 391 
Q 2188 391 2477 730 
Q 2766 1069 2766 1631 
L 2766 1759 
L 2194 1759 
z
M 3341 1997 
L 3341 0 
L 2766 0 
L 2766 531 
Q 2569 213 2275 61 
Q 1981 -91 1556 -91 
Q 1019 -91 701 211 
Q 384 513 384 1019 
Q 384 1609 779 1909 
Q 1175 2209 1959 2209 
L 2766 2209 
L 2766 2266 
Q 2766 2663 2505 2880 
Q 2244 3097 1772 3097 
Q 1472 3097 1187 3025 
Q 903 2953 641 2809 
L 641 3341 
Q 956 3463 1253 3523 
Q 1550 3584 1831 3584 
Q 2591 3584 2966 3190 
Q 3341 2797 3341 1997 
z
" transform="scale(0.015625)"/>
       <path id="DejaVuSans-67" d="M 2906 1791 
Q 2906 2416 2648 2759 
Q 2391 3103 1925 3103 
Q 1463 3103 1205 2759 
Q 947 2416 947 1791 
Q 947 1169 1205 825 
Q 1463 481 1925 481 
Q 2391 481 2648 825 
Q 2906 1169 2906 1791 
z
M 3481 434 
Q 3481 -459 3084 -895 
Q 2688 -1331 1869 -1331 
Q 1566 -1331 1297 -1286 
Q 1028 -1241 775 -1147 
L 775 -588 
Q 1028 -725 1275 -790 
Q 1522 -856 1778 -856 
Q 2344 -856 2625 -561 
Q 2906 -266 2906 331 
L 2906 616 
Q 2728 306 2450 153 
Q 2172 0 1784 0 
Q 1141 0 747 490 
Q 353 981 353 1791 
Q 353 2603 747 3093 
Q 1141 3584 1784 3584 
Q 2172 3584 2450 3431 
Q 2728 3278 2906 2969 
L 2906 3500 
L 3481 3500 
L 3481 434 
z
" transform="scale(0.015625)"/>
       <path id="DejaVuSans-70" d="M 1159 525 
L 1159 -1331 
L 581 -1331 
L 581 3500 
L 1159 3500 
L 1159 2969 
Q 1341 3281 1617 3432 
Q 1894 3584 2278 3584 
Q 2916 3584 3314 3078 
Q 3713 2572 3713 1747 
Q 3713 922 3314 415 
Q 2916 -91 2278 -91 
Q 1894 -91 1617 61 
Q 1341 213 1159 525 
z
M 3116 1747 
Q 3116 2381 2855 2742 
Q 2594 3103 2138 3103 
Q 1681 3103 1420 2742 
Q 1159 2381 1159 1747 
Q 1159 1113 1420 752 
Q 1681 391 2138 391 
Q 2594 391 2855 752 
Q 3116 1113 3116 1747 
z
" transform="scale(0.015625)"/>
       <path id="DejaVuSans-6f" d="M 1959 3097 
Q 1497 3097 1228 2736 
Q 959 2375 959 1747 
Q 959 1119 1226 758 
Q 1494 397 1959 397 
Q 2419 397 2687 759 
Q 2956 1122 2956 1747 
Q 2956 2369 2687 2733 
Q 2419 3097 1959 3097 
z
M 1959 3584 
Q 2709 3584 3137 3096 
Q 3566 2609 3566 1747 
Q 3566 888 3137 398 
Q 2709 -91 1959 -91 
Q 1206 -91 779 398 
Q 353 888 353 1747 
Q 353 2609 779 3096 
Q 1206 3584 1959 3584 
z
" transform="scale(0.015625)"/>
       <path id="DejaVuSans-6e" d="M 3513 2113 
L 3513 0 
L 2938 0 
L 2938 2094 
Q 2938 2591 2744 2837 
Q 2550 3084 2163 3084 
Q 1697 3084 1428 2787 
Q 1159 2491 1159 1978 
L 1159 0 
L 581 0 
L 581 3500 
L 1159 3500 
L 1159 2956 
Q 1366 3272 1645 3428 
Q 1925 3584 2291 3584 
Q 2894 3584 3203 3211 
Q 3513 2838 3513 2113 
z
" transform="scale(0.015625)"/>
       <path id="DejaVuSans-54" d="M -19 4666 
L 3928 4666 
L 3928 4134 
L 2272 4134 
L 2272 0 
L 1638 0 
L 1638 4134 
L -19 4134 
L -19 4666 
z
" transform="scale(0.015625)"/>
       <path id="DejaVuSans-69" d="M 603 3500 
L 1178 3500 
L 1178 0 
L 603 0 
L 603 3500 
z
M 603 4863 
L 1178 4863 
L 1178 4134 
L 603 4134 
L 603 4863 
z
" transform="scale(0.015625)"/>
       <path id="DejaVuSans-28" d="M 1984 4856 
Q 1566 4138 1362 3434 
Q 1159 2731 1159 2009 
Q 1159 1288 1364 580 
Q 1569 -128 1984 -844 
L 1484 -844 
Q 1016 -109 783 600 
Q 550 1309 550 2009 
Q 550 2706 781 3412 
Q 1013 4119 1484 4856 
L 1984 4856 
z
" transform="scale(0.015625)"/>
       <path id="DejaVuSans-29" d="M 513 4856 
L 1013 4856 
Q 1481 4119 1714 3412 
Q 1947 2706 1947 2009 
Q 1947 1309 1714 600 
Q 1481 -109 1013 -844 
L 513 -844 
Q 928 -128 1133 580 
Q 1338 1288 1338 2009 
Q 1338 2731 1133 3434 
Q 928 4138 513 4856 
z
" transform="scale(0.015625)"/>
      </defs>
      <use xlink:href="#DejaVuSans-41"/>
      <use xlink:href="#DejaVuSans-76" x="62.533203"/>
      <use xlink:href="#DejaVuSans-65" x="121.712891"/>
      <use xlink:href="#DejaVuSans-72" x="183.236328"/>
      <use xlink:href="#DejaVuSans-61" x="224.349609"/>
      <use xlink:href="#DejaVuSans-67" x="285.628906"/>
      <use xlink:href="#DejaVuSans-65" x="349.105469"/>
      <use xlink:href="#DejaVuSans-20" x="410.628906"/>
      <use xlink:href="#DejaVuSans-52" x="442.416016"/>
      <use xlink:href="#DejaVuSans-65" x="507.398438"/>
      <use xlink:href="#DejaVuSans-73" x="568.921875"/>
      <use xlink:href="#DejaVuSans-70" x="621.021484"/>
      <use xlink:href="#DejaVuSans-6f" x="684.498047"/>
      <use xlink:href="#DejaVuSans-6e" x="745.679688"/>
      <use xlink:href="#DejaVuSans-73" x="809.058594"/>
      <use xlink:href="#DejaVuSans-65" x="861.158203"/>
      <use xlink:href="#DejaVuSans-20" x="922.681641"/>
      <use xlink:href="#DejaVuSans-54" x="954.46875"/>
      <use xlink:href="#DejaVuSans-69" x="1012.427734"/>
      <use xlink:href="#DejaVuSans-6d" x="1040.210938"/>
      <use xlink:href="#DejaVuSans-65" x="1137.623047"/>
      <use xlink:href="#DejaVuSans-20" x="1199.146484"/>
      <use xlink:href="#DejaVuSans-28" x="1230.933594"/>
      <use xlink:href="#DejaVuSans-73" x="1269.947266"/>
      <use xlink:href="#DejaVuSans-29" x="1322.046875"/>
     </g>
    </g>
   </g>
   <g id="line2d_12">
    <path d="M 66.376477 154.940255 
L 66.728979 143.265439 
L 67.081482 139.38662 
L 67.433984 149.035455 
L 67.786486 148.586804 
L 68.138988 151.787088 
L 68.491491 149.645137 
L 68.843993 155.429354 
L 69.196495 156.897051 
L 69.548997 156.152286 
L 69.901499 147.762435 
L 70.254002 147.887829 
L 70.606504 166.387808 
L 70.959006 143.089941 
L 71.311508 141.526581 
L 71.664011 148.753277 
L 72.016513 159.429585 
L 72.369015 165.113162 
L 72.721517 168.335413 
L 73.074019 173.237791 
L 73.426522 151.040797 
L 73.779024 145.915802 
L 74.131526 150.423881 
L 74.484028 139.276921 
L 74.836531 145.1426 
L 75.189033 147.418672 
L 75.894037 142.486895 
L 76.246539 143.289198 
L 76.599042 153.193864 
L 76.951544 145.828833 
L 77.304046 156.216692 
L 77.656548 152.886534 
L 78.009051 143.093591 
L 78.361553 141.801392 
L 79.066557 146.720328 
L 79.419059 139.252566 
L 79.771562 136.316143 
L 80.124064 123.270953 
L 80.476566 125.720665 
L 80.829068 134.04183 
L 81.181571 134.492306 
L 81.534073 156.425206 
L 81.886575 151.894763 
L 82.239077 157.109216 
L 82.591579 157.00174 
L 82.944082 146.286708 
L 83.296584 143.615872 
L 83.649086 139.938799 
L 84.001588 154.654062 
L 84.354091 174.309098 
L 84.706593 169.342215 
L 85.059095 176.481112 
L 85.411597 197.179915 
L 85.764099 202.169794 
L 86.116602 210.251684 
L 86.469104 209.064805 
L 86.821606 205.118593 
L 87.174108 195.928995 
L 87.526611 217.70541 
L 87.879113 210.1898 
L 88.231615 218.012242 
L 88.584117 217.29243 
L 88.936619 220.158806 
L 89.289122 215.804591 
L 89.641624 223.679991 
L 89.994126 221.743269 
L 91.051633 254.92148 
L 91.404135 248.777141 
L 91.756637 253.223236 
L 92.109139 253.113072 
L 92.461642 251.031446 
L 92.814144 244.484213 
L 93.166646 241.152695 
L 93.519148 245.061875 
L 93.871651 244.904228 
L 94.224153 238.889962 
L 94.576655 218.618905 
L 95.281659 194.073768 
L 95.986664 155.297689 
L 96.339166 148.981203 
L 96.691668 135.296234 
L 97.04417 128.387586 
L 97.396673 135.092498 
L 97.749175 133.720033 
L 98.454179 123.827445 
L 98.806682 118.289337 
L 99.159184 126.683601 
L 99.511686 124.319498 
L 99.864188 132.378194 
L 100.21669 100.164578 
L 100.569193 104.416228 
L 100.921695 100.868895 
L 101.274197 106.956029 
L 101.626699 105.564849 
L 101.979202 82.807646 
L 102.684206 68.421679 
L 103.036708 53.924653 
L 103.38921 62.68332 
L 103.741713 62.837482 
L 104.094215 64.303288 
L 104.446717 57.474176 
L 104.799219 69.400045 
L 105.151722 89.137007 
L 105.504224 89.094369 
L 105.856726 102.368214 
L 106.209228 127.732013 
L 106.56173 121.421367 
L 106.914233 121.786234 
L 107.266735 130.98645 
L 107.619237 131.73888 
L 107.971739 133.129629 
L 108.324242 141.323143 
L 108.676744 134.889625 
L 109.029246 149.755301 
L 109.381748 171.482474 
L 109.73425 170.577042 
L 110.086753 170.709006 
L 110.439255 160.539682 
L 110.791757 189.410498 
L 111.144259 193.341346 
L 111.496762 184.39497 
L 111.849264 186.081269 
L 112.201766 178.157523 
L 112.554268 193.466607 
L 113.259273 199.904008 
L 113.964277 227.055575 
L 114.316779 227.101897 
L 114.669282 230.099839 
L 115.021784 242.410716 
L 115.374286 215.274545 
L 115.726788 221.863686 
L 116.07929 211.885191 
L 116.431793 220.148917 
L 116.784295 197.897604 
L 117.136797 202.99748 
L 117.489299 203.558087 
L 117.841802 195.807251 
L 118.194304 190.760234 
L 118.546806 182.744508 
L 118.899308 181.68707 
L 119.25181 183.353493 
L 119.956815 151.206938 
L 120.309317 152.636974 
L 120.661819 152.272107 
L 121.014322 152.151225 
L 121.366824 143.072852 
L 121.719326 118.998963 
L 122.071828 121.717381 
L 122.42433 102.766462 
L 122.776833 113.483751 
L 123.481837 122.742168 
L 123.834339 125.313226 
L 124.186842 132.045812 
L 124.891846 106.198024 
L 125.244348 108.750401 
L 125.59685 104.06752 
L 125.949353 124.56136 
L 126.301855 123.749667 
L 126.654357 111.448412 
L 127.006859 109.709288 
L 127.359361 129.939 
L 127.711864 112.22709 
L 128.064366 115.469482 
L 128.416868 124.334728 
L 128.76937 137.575558 
L 129.121873 140.107329 
L 129.474375 144.240155 
L 129.826877 142.04561 
L 130.179379 163.058147 
L 130.531881 165.237063 
L 130.884384 158.221503 
L 131.236886 158.638863 
L 131.589388 168.739236 
L 131.94189 166.568881 
L 132.294393 185.728049 
L 132.646895 186.304317 
L 132.999397 198.649139 
L 133.351899 195.534463 
L 133.704401 197.674855 
L 134.056904 189.92903 
L 134.761908 182.731069 
L 135.11441 182.458647 
L 135.466913 195.486848 
L 135.819415 189.04646 
L 136.171917 184.93945 
L 136.524419 196.277603 
L 136.876921 180.202152 
L 137.229424 203.310385 
L 137.581926 204.144741 
L 137.934428 203.515448 
L 138.28693 216.262234 
L 138.639433 217.939342 
L 138.991935 210.123569 
L 139.344437 211.756147 
L 139.696939 206.710324 
L 140.049441 206.741581 
L 140.401944 208.263663 
L 140.754446 195.444342 
L 141.106948 194.012083 
L 141.45945 193.566451 
L 141.811953 205.180942 
L 142.164455 195.952222 
L 142.516957 198.852046 
L 143.221961 196.155328 
L 143.574464 197.683914 
L 143.926966 201.285499 
L 144.279468 201.087403 
L 144.984473 214.708497 
L 145.336975 197.141026 
L 145.689477 202.319145 
L 146.394481 206.032752 
L 146.746984 211.187908 
L 147.099486 203.752167 
L 147.451988 218.571488 
L 147.80449 216.969471 
L 148.156993 206.855362 
L 148.509495 200.146136 
L 148.861997 199.999903 
L 149.214499 187.305876 
L 149.567001 199.54226 
L 149.919504 200.001596 
L 150.272006 214.788963 
L 150.624508 206.377643 
L 150.97701 210.18041 
L 151.329513 206.388228 
L 151.682015 210.425689 
L 152.034517 215.928525 
L 152.387019 203.808842 
L 152.739521 202.969342 
L 153.092024 201.726319 
L 153.444526 201.21293 
L 153.797028 202.51286 
L 154.14953 206.226533 
L 154.502032 201.89475 
L 155.207037 200.046756 
L 155.559539 197.220895 
L 155.912041 220.317315 
L 156.264544 227.200613 
L 156.617046 227.317247 
L 156.969548 222.369012 
L 157.32205 212.933171 
L 157.674552 217.715 
L 158.027055 219.79573 
L 158.379557 214.83482 
L 158.732059 216.25812 
L 159.084561 224.072333 
L 159.437064 223.382118 
L 159.789566 227.868164 
L 160.142068 223.065232 
L 160.49457 222.074656 
L 160.847072 206.583802 
L 161.199575 205.31055 
L 161.552077 208.173442 
L 161.904579 208.44238 
L 162.257081 207.991108 
L 162.609584 210.317683 
L 162.962086 211.68391 
L 163.314588 212.594584 
L 163.66709 213.139363 
L 164.019592 214.176095 
L 164.372095 216.005241 
L 164.724597 214.855525 
L 165.077099 194.239212 
L 165.429601 187.041815 
L 166.134606 192.254111 
L 166.487108 180.133233 
L 166.83961 175.397129 
L 167.192112 163.673072 
L 167.544615 165.046898 
L 167.897117 168.131611 
L 168.249619 163.211646 
L 168.602121 171.1265 
L 168.954624 173.83513 
L 169.307126 159.887262 
L 169.659628 156.931826 
L 170.01213 159.640423 
L 170.364632 166.2436 
L 170.717135 165.571602 
L 171.069637 165.679011 
L 171.422139 173.881319 
L 171.774641 157.656417 
L 172.127144 156.999583 
L 172.479646 162.491004 
L 173.18465 145.761374 
L 173.537152 152.727858 
L 173.889655 137.432777 
L 174.242157 143.909166 
L 174.594659 146.588795 
L 174.947161 123.993287 
L 175.299664 114.491482 
L 175.652166 156.62725 
L 176.004668 167.104734 
L 176.35717 161.737213 
L 176.709672 153.626421 
L 177.062175 166.170566 
L 177.414677 136.654631 
L 177.767179 147.961825 
L 178.119681 153.430748 
L 178.472184 163.464591 
L 178.824686 158.528169 
L 179.52969 143.879236 
L 179.882192 158.086221 
L 180.234695 155.286042 
L 180.587197 158.116847 
L 180.939699 136.499074 
L 181.292201 134.63585 
L 181.644704 126.239496 
L 181.997206 124.259704 
L 182.349708 140.46765 
L 182.70221 146.18119 
L 183.054712 139.998526 
L 183.407215 140.565603 
L 183.759717 140.041762 
L 184.112219 140.356392 
L 184.464721 149.914308 
L 184.817223 145.751751 
L 185.169726 124.810223 
L 185.522228 145.427598 
L 185.87473 154.29321 
L 186.227232 127.19772 
L 186.579735 118.249453 
L 186.932237 116.516069 
L 187.284739 120.855717 
L 187.637241 115.003974 
L 187.989743 145.447673 
L 188.342246 138.467717 
L 188.694748 141.294043 
L 189.04725 128.811284 
L 189.399752 110.888536 
L 189.752255 113.91591 
L 190.104757 125.915111 
L 190.457259 133.23309 
L 190.809761 138.140943 
L 191.162263 135.296135 
L 191.514766 131.060412 
L 192.572272 111.711975 
L 192.924775 110.609942 
L 193.277277 100.351624 
L 193.629779 102.835514 
L 193.982281 102.868165 
L 194.334783 108.893315 
L 194.687286 108.077009 
L 195.039788 120.311402 
L 195.39229 123.835143 
L 195.744792 140.888262 
L 196.097295 144.853786 
L 196.449797 140.736423 
L 196.802299 146.305024 
L 197.507303 161.953326 
L 198.212308 168.546184 
L 198.56481 162.615635 
L 198.917312 171.146077 
L 199.269815 171.474245 
L 199.622317 176.929631 
L 199.974819 201.102634 
L 200.327321 201.653286 
L 200.679823 193.348712 
L 201.032326 189.612509 
L 201.384828 189.477525 
L 201.73733 201.768294 
L 202.089832 220.406475 
L 202.442335 206.662343 
L 202.794837 221.050035 
L 203.147339 205.280056 
L 203.499841 203.470984 
L 203.852343 198.149521 
L 204.204846 203.187214 
L 204.557348 202.40419 
L 204.90985 202.778912 
L 205.262352 204.432361 
L 205.614855 191.234468 
L 205.967357 183.675224 
L 206.319859 165.258465 
L 206.672361 163.562345 
L 207.024863 174.397661 
L 207.377366 170.663614 
L 208.08237 142.029982 
L 208.787375 132.825385 
L 209.139877 132.168784 
L 209.492379 136.374112 
L 209.844881 129.373583 
L 210.197383 127.260533 
L 210.549886 125.920486 
L 210.902388 118.58366 
L 211.25489 96.313765 
L 211.607392 100.184288 
L 211.959895 89.473471 
L 212.312397 83.593258 
L 212.664899 92.190296 
L 213.017401 105.134382 
L 213.369903 98.206852 
L 213.722406 118.414134 
L 214.074908 120.987349 
L 214.42741 126.554059 
L 214.779912 112.672887 
L 215.132414 121.332838 
L 215.484917 106.591593 
L 215.837419 81.22743 
L 216.542423 94.69237 
L 216.894926 119.405208 
L 217.247428 116.715325 
L 217.59993 101.515144 
L 217.952432 98.115072 
L 218.304934 113.663297 
L 218.657437 97.354279 
L 219.009939 99.384508 
L 219.714943 94.382916 
L 220.067446 65.219338 
L 220.419948 67.930523 
L 220.77245 76.363443 
L 221.124952 68.831972 
L 221.477454 68.738267 
L 221.829957 95.950922 
L 222.182459 86.887945 
L 222.534961 95.254204 
L 222.887463 85.499785 
L 223.239966 84.601355 
L 223.592468 87.752065 
L 223.94497 88.263032 
L 224.297472 88.376978 
L 224.649974 96.590136 
L 225.002477 76.375024 
L 225.354979 87.874374 
L 225.707481 87.805488 
L 226.059983 98.245509 
L 226.412486 123.046677 
L 226.764988 108.915547 
L 227.11749 111.086399 
L 227.469992 109.952644 
L 228.174997 95.372364 
L 228.527499 91.614128 
L 228.880001 90.622689 
L 229.232503 117.398738 
L 229.937508 114.849779 
L 230.29001 121.382975 
L 230.642512 144.479959 
L 230.995014 153.60127 
L 231.347517 150.05022 
L 231.700019 160.521399 
L 232.052521 165.187589 
L 232.405023 165.336608 
L 232.757526 171.443485 
L 233.110028 172.979305 
L 233.46253 181.430376 
L 233.815032 174.321276 
L 234.167534 176.358406 
L 234.520037 184.377118 
L 234.872539 186.303521 
L 235.225041 180.084987 
L 235.577543 207.975977 
L 235.930046 214.086073 
L 236.282548 211.005309 
L 236.63505 211.410293 
L 236.987552 185.481807 
L 237.340054 200.29688 
L 237.692557 183.021941 
L 238.045059 185.59134 
L 239.102566 229.48143 
L 239.455068 226.914254 
L 239.80757 232.993291 
L 240.512574 240.911828 
L 240.865077 234.515904 
L 241.217579 241.924304 
L 241.570081 213.47274 
L 241.922583 213.533198 
L 242.275086 207.157482 
L 242.98009 190.740092 
L 243.332592 187.084487 
L 243.685094 184.914232 
L 244.037597 187.196675 
L 244.390099 194.205931 
L 244.742601 190.236326 
L 245.447605 188.033785 
L 245.800108 187.972598 
L 246.505112 169.137318 
L 247.210117 164.868082 
L 247.562619 192.578762 
L 247.915121 191.09746 
L 248.267623 212.782957 
L 248.620125 186.01537 
L 248.972628 186.906898 
L 249.32513 182.630794 
L 250.030134 189.075229 
L 250.382637 178.972036 
L 250.735139 179.802145 
L 251.087641 185.096433 
L 251.440143 209.997313 
L 251.792645 202.909914 
L 252.145148 221.809899 
L 252.49765 222.325079 
L 252.850152 221.945214 
L 253.907659 245.545168 
L 254.260161 248.477509 
L 254.612663 241.76095 
L 254.965165 243.251045 
L 255.317668 248.864177 
L 256.022672 236.139357 
L 256.375174 235.409092 
L 256.727677 235.199449 
L 257.432681 244.192512 
L 257.785183 252.879572 
L 258.137685 240.388651 
L 258.490188 245.217464 
L 258.84269 233.088059 
L 259.195192 252.336685 
L 259.547694 245.914348 
L 259.900197 248.608511 
L 260.252699 243.392101 
L 260.605201 260.981206 
L 260.957703 260.750526 
L 261.310205 261.216 
L 261.662708 250.512814 
L 262.01521 230.622651 
L 262.367712 223.760656 
L 263.072717 219.392173 
L 263.425219 218.447123 
L 263.777721 216.059394 
L 264.130223 215.421308 
L 264.482725 206.581114 
L 264.835228 181.670247 
L 265.18773 169.557698 
L 265.540232 167.483769 
L 265.892734 167.543729 
L 266.245237 174.308202 
L 266.597739 183.420155 
L 266.950241 181.229195 
L 267.655245 187.473345 
L 268.36025 167.450421 
L 268.712752 179.986437 
L 269.065254 174.105694 
L 269.417757 173.641315 
L 269.770259 179.949572 
L 270.122761 180.421483 
L 270.475263 175.512668 
L 270.827765 176.933878 
L 271.53277 134.633959 
L 271.885272 134.828305 
L 272.237774 146.092926 
L 272.590277 125.112742 
L 272.942779 133.617932 
L 273.295281 118.835941 
L 273.647783 114.691833 
L 274.000285 112.00069 
L 274.352788 89.237847 
L 275.057792 71.565986 
L 275.410294 95.17188 
L 275.762796 108.551111 
L 276.115299 108.940267 
L 276.467801 117.83906 
L 276.820303 118.217532 
L 277.172805 112.055938 
L 277.525308 129.079293 
L 277.87781 127.320525 
L 278.230312 120.506478 
L 278.582814 130.125714 
L 278.935316 130.191547 
L 279.287819 127.105906 
L 279.640321 135.000054 
L 279.992823 137.514769 
L 280.345325 133.152889 
L 280.697828 132.429759 
L 281.05033 138.68612 
L 281.402832 138.641623 
L 281.755334 136.308047 
L 282.107836 140.280737 
L 282.460339 131.481987 
L 282.812841 133.913549 
L 283.165343 143.481055 
L 283.517845 137.239792 
L 283.870348 158.626387 
L 284.22285 159.671879 
L 284.927854 212.673026 
L 285.280356 214.6276 
L 285.632859 237.897594 
L 285.985361 214.82679 
L 286.337863 217.32362 
L 286.690365 212.623519 
L 287.39537 183.341116 
L 287.747872 180.816148 
L 288.452876 178.686109 
L 288.805379 166.70267 
L 289.157881 168.247813 
L 289.862885 182.708008 
L 290.215388 176.752108 
L 290.56789 179.468834 
L 291.272894 178.099853 
L 291.625396 180.701239 
L 291.977899 158.814096 
L 292.330401 159.314644 
L 292.682903 175.535763 
L 293.035405 185.10005 
L 293.387908 170.277278 
L 293.74041 185.622531 
L 294.092912 163.307044 
L 294.445414 155.991454 
L 294.797916 162.476836 
L 295.150419 144.325299 
L 295.502921 137.38838 
L 295.855423 118.580175 
L 296.207925 114.006795 
L 296.560428 128.991594 
L 296.91293 121.649657 
L 297.265432 120.22513 
L 297.617934 151.644705 
L 297.970436 163.589952 
L 298.322939 170.7615 
L 298.675441 157.851293 
L 299.027943 157.665973 
L 299.380445 169.267722 
L 300.08545 156.915135 
L 300.437952 144.4273 
L 300.790454 142.86394 
L 301.142956 145.608904 
L 301.495459 152.908898 
L 301.847961 150.283853 
L 302.200463 151.421392 
L 302.552965 173.176139 
L 302.905468 155.054632 
L 303.25797 152.884676 
L 303.610472 142.969325 
L 303.962974 142.744518 
L 304.315476 134.484707 
L 304.667979 144.102085 
L 305.020481 145.866593 
L 305.372983 137.880963 
L 305.725485 116.353743 
L 306.077987 112.984331 
L 306.43049 138.981769 
L 306.782992 123.575794 
L 307.487996 136.958742 
L 307.840499 139.991856 
L 308.193001 122.476315 
L 308.545503 117.231037 
L 309.250507 116.033805 
L 309.60301 124.709981 
L 310.308014 133.767947 
L 310.660516 134.488589 
L 311.013019 144.092993 
L 311.365521 136.624966 
L 311.718023 123.546893 
L 312.070525 123.793666 
L 312.77553 99.86926 
L 313.128032 93.01858 
L 313.480534 122.282368 
L 313.833036 125.840651 
L 314.538041 146.427266 
L 315.595547 183.211243 
L 315.94805 168.63823 
L 316.300552 180.996756 
L 316.653054 185.585533 
L 317.005556 176.366668 
L 317.358059 189.957997 
L 317.710561 184.966261 
L 318.063063 187.570866 
L 318.415565 192.512199 
L 318.768067 180.73545 
L 319.12057 177.635341 
L 319.473072 172.57452 
L 319.825574 171.679176 
L 320.178076 166.25455 
L 320.530579 153.53046 
L 320.883081 150.600706 
L 321.235583 151.209028 
L 321.588085 141.846719 
L 321.940587 135.991824 
L 322.29309 142.952966 
L 322.645592 138.090938 
L 322.998094 159.790869 
L 323.703099 181.038001 
L 324.408103 164.742157 
L 324.760605 158.064453 
L 325.113107 162.186263 
L 325.46561 148.380811 
L 325.818112 150.635912 
L 326.170614 148.517819 
L 326.875619 180.190074 
L 327.228121 182.460671 
L 327.580623 193.51774 
L 327.933125 192.960618 
L 328.285627 199.124866 
L 328.63813 200.2122 
L 328.990632 179.070984 
L 329.343134 181.015836 
L 329.695636 197.649803 
L 330.048139 203.584002 
L 330.400641 202.015863 
L 330.753143 201.71882 
L 331.105645 207.814315 
L 331.458147 191.457914 
L 331.81065 191.468997 
L 332.163152 188.939947 
L 333.220658 196.442052 
L 333.573161 203.031093 
L 333.925663 200.317619 
L 334.278165 191.673961 
L 334.630667 196.523215 
L 335.335672 208.663968 
L 335.688174 200.430205 
L 336.040676 206.607494 
L 336.393178 206.871621 
L 336.745681 205.540666 
L 337.098183 211.320802 
L 337.450685 201.880316 
L 337.803187 202.437504 
L 338.15569 204.268907 
L 338.508192 194.372238 
L 338.860694 200.435846 
L 339.213196 197.112955 
L 339.565698 220.352355 
L 339.918201 218.714402 
L 340.270703 229.350428 
L 340.623205 219.342633 
L 340.975707 201.517174 
L 341.32821 199.010124 
L 341.680712 206.82208 
L 342.033214 219.109863 
L 342.385716 221.133753 
L 342.738218 221.504095 
L 343.090721 234.319634 
L 343.443223 236.613458 
L 344.148227 224.084079 
L 344.50073 203.443676 
L 344.853232 215.619238 
L 345.205734 215.995917 
L 345.558236 219.39589 
L 345.910738 214.76464 
L 346.263241 218.714303 
L 346.968245 208.156917 
L 347.320747 203.639017 
L 348.025752 206.044963 
L 348.378254 209.233269 
L 349.083258 227.972455 
L 349.435761 222.06208 
L 349.788263 223.083449 
L 350.493267 203.145172 
L 350.84577 185.513761 
L 351.198272 193.540072 
L 351.550774 217.941167 
L 351.903276 220.900386 
L 352.255778 211.433487 
L 352.960783 218.465771 
L 353.313285 227.189995 
L 353.665787 226.405643 
L 354.01829 221.120547 
L 354.370792 224.794601 
L 354.723294 230.193577 
L 355.075796 248.145061 
L 355.428298 233.871414 
L 356.133303 217.491918 
L 356.485805 217.202075 
L 356.838307 217.727841 
L 357.543312 221.564984 
L 357.895814 227.098015 
L 358.600818 212.251451 
L 358.953321 205.969806 
L 359.305823 187.841729 
L 359.658325 192.231315 
L 360.010827 190.928664 
L 360.36333 193.787973 
L 360.715832 199.123108 
L 361.068334 211.652785 
L 361.420836 203.948271 
L 361.773338 210.488801 
L 362.125841 208.216346 
L 362.478343 198.084152 
L 362.830845 204.696289 
L 363.183347 203.861269 
L 363.535849 197.065936 
L 363.888352 195.04115 
L 364.240854 197.842788 
L 364.593356 195.495276 
L 364.945858 192.140265 
L 365.298361 180.40914 
L 365.650863 183.781074 
L 366.003365 190.511105 
L 366.708369 194.316924 
L 367.060872 200.115509 
L 367.413374 203.048182 
L 367.765876 214.452466 
L 368.118378 216.527191 
L 368.470881 213.882967 
L 368.823383 226.446092 
L 369.175885 230.771438 
L 369.528387 229.680355 
L 369.880889 228.188899 
L 370.585894 180.465283 
L 370.938396 183.216983 
L 371.290898 173.793254 
L 371.643401 171.044707 
L 371.995903 177.370451 
L 372.348405 171.599838 
L 372.700907 169.848403 
L 373.053409 176.741822 
L 373.405912 174.665305 
L 373.758414 179.609459 
L 374.463418 185.470226 
L 374.815921 187.412323 
L 375.873427 209.531042 
L 376.225929 213.890798 
L 376.578432 207.267778 
L 377.283436 216.014068 
L 377.635938 218.333973 
L 378.340943 202.81717 
L 379.045947 196.183665 
L 379.398449 190.697719 
L 379.750952 191.506857 
L 380.103454 179.541237 
L 380.455956 183.63952 
L 380.808458 204.810567 
L 381.160961 218.706538 
L 381.513463 195.656705 
L 381.865965 196.107281 
L 382.218467 206.153301 
L 382.570969 206.724028 
L 382.923472 195.730966 
L 383.275974 201.58304 
L 383.628476 200.575707 
L 383.980978 206.244684 
L 384.333481 206.345026 
L 384.685983 207.982514 
L 385.038485 205.962605 
L 385.390987 191.934504 
L 385.743489 190.863462 
L 386.095992 191.251125 
L 386.448494 181.596517 
L 387.153498 176.411829 
L 387.506001 170.123646 
L 387.858503 171.719458 
L 388.211005 161.434396 
L 388.563507 168.785856 
L 388.916009 143.006456 
L 389.268512 128.586743 
L 389.621014 131.981506 
L 389.973516 128.407827 
L 390.326018 129.086295 
L 390.678521 148.790042 
L 391.031023 131.071926 
L 391.031023 131.071926 
" clip-path="url(#pe2445ea18a)" style="fill: none; stroke: #4878d0; stroke-width: 1.5; stroke-linecap: square"/>
   </g>
   <g id="line2d_13">
    <path d="M 66.376477 116.123528 
L 67.081482 102.312502 
L 67.433984 110.209537 
L 67.786486 108.796092 
L 68.138988 109.344521 
L 68.491491 106.284297 
L 68.843993 110.723689 
L 69.548997 114.315751 
L 69.901499 106.543314 
L 70.254002 107.395256 
L 70.606504 124.817623 
L 70.959006 101.322822 
L 71.311508 99.898261 
L 71.664011 114.563884 
L 72.016513 119.680152 
L 72.369015 128.847452 
L 72.721517 127.953568 
L 73.074019 135.749896 
L 73.426522 115.083412 
L 73.779024 110.092239 
L 74.131526 111.728599 
L 74.484028 104.716225 
L 74.836531 114.319567 
L 75.189033 117.335394 
L 75.541535 116.227918 
L 75.894037 112.46633 
L 76.599042 124.866267 
L 76.951544 118.04127 
L 77.304046 123.68765 
L 77.656548 125.27583 
L 78.009051 121.618433 
L 78.361553 120.475354 
L 78.714055 124.25977 
L 79.066557 129.759586 
L 79.771562 124.352281 
L 80.124064 106.522111 
L 80.829068 119.013065 
L 81.181571 122.429098 
L 81.534073 148.432243 
L 81.886575 144.381907 
L 82.239077 146.172198 
L 82.591579 145.995936 
L 82.944082 135.746412 
L 83.296584 134.097243 
L 83.649086 129.18073 
L 84.354091 161.380443 
L 84.706593 157.721719 
L 85.059095 163.434694 
L 85.411597 183.797698 
L 86.116602 192.198764 
L 86.469104 191.713281 
L 87.174108 176.943633 
L 87.526611 200.630822 
L 87.879113 195.00966 
L 88.231615 200.754026 
L 88.584117 197.274948 
L 88.936619 200.870892 
L 89.289122 197.100312 
L 89.641624 204.889938 
L 89.994126 201.290742 
L 90.346628 212.626737 
L 90.699131 228.889467 
L 91.051633 232.3565 
L 91.404135 226.120114 
L 91.756637 229.294185 
L 92.109139 229.326471 
L 92.461642 226.517599 
L 92.814144 221.338982 
L 93.166646 222.365893 
L 93.519148 224.764704 
L 93.871651 224.402458 
L 94.224153 218.628494 
L 94.576655 198.449915 
L 95.281659 175.283648 
L 95.634162 149.534841 
L 95.986664 132.470141 
L 96.339166 127.530467 
L 96.691668 114.580873 
L 97.04417 108.143307 
L 97.396673 116.253003 
L 98.101677 113.292059 
L 98.806682 98.5613 
L 99.159184 103.316882 
L 99.511686 104.270427 
L 99.864188 107.917471 
L 100.21669 78.072837 
L 100.569193 75.741948 
L 100.921695 69.885063 
L 101.274197 78.283242 
L 101.626699 76.870229 
L 101.979202 49.394608 
L 102.331704 46.255942 
L 102.684206 38.035485 
L 103.036708 19.296 
L 103.38921 29.087748 
L 103.741713 26.281431 
L 104.094215 25.794754 
L 104.446717 20.556477 
L 104.799219 28.743653 
L 105.151722 49.170863 
L 105.504224 46.231952 
L 105.856726 64.358834 
L 106.209228 88.442214 
L 106.56173 86.354581 
L 106.914233 83.229188 
L 107.266735 96.93005 
L 107.619237 96.878187 
L 107.971739 97.50884 
L 108.324242 105.94989 
L 108.676744 96.905297 
L 109.029246 111.893579 
L 109.381748 134.632731 
L 109.73425 136.332933 
L 110.086753 133.526019 
L 110.439255 128.272246 
L 110.791757 149.618492 
L 111.144259 158.487787 
L 111.496762 152.377226 
L 111.849264 150.901333 
L 112.201766 142.365416 
L 112.554268 163.241444 
L 112.90677 160.691854 
L 113.259273 162.758317 
L 113.611775 182.113987 
L 113.964277 193.029404 
L 114.316779 195.040221 
L 115.021784 202.728907 
L 115.374286 180.642275 
L 115.726788 187.079245 
L 116.07929 179.18211 
L 116.431793 184.39205 
L 116.784295 164.939489 
L 117.136797 167.378152 
L 117.489299 170.798697 
L 117.841802 161.194857 
L 118.194304 156.692652 
L 118.546806 149.323937 
L 118.899308 148.357783 
L 119.25181 147.930733 
L 119.956815 119.897791 
L 120.309317 120.093829 
L 120.661819 120.035695 
L 121.014322 118.651085 
L 121.366824 111.635989 
L 121.719326 85.808873 
L 122.071828 86.874241 
L 122.42433 68.168569 
L 123.129335 82.850285 
L 123.834339 93.353949 
L 124.186842 99.593287 
L 124.891846 76.694598 
L 125.244348 76.713777 
L 125.59685 76.874443 
L 125.949353 95.823271 
L 126.301855 93.23987 
L 126.654357 78.2779 
L 127.006859 78.169362 
L 127.359361 97.76298 
L 127.711864 78.936028 
L 128.064366 81.970636 
L 128.416868 88.464611 
L 128.76937 101.927228 
L 129.121873 106.621357 
L 129.474375 108.903933 
L 129.826877 110.439188 
L 130.179379 129.325104 
L 130.531881 126.695745 
L 130.884384 121.026337 
L 131.236886 118.970128 
L 131.589388 127.909635 
L 131.94189 127.478438 
L 132.294393 145.896689 
L 132.646895 146.649186 
L 132.999397 159.142132 
L 133.351899 156.77262 
L 133.704401 157.920378 
L 134.761908 138.216199 
L 135.11441 137.204187 
L 135.466913 149.207668 
L 136.171917 142.923833 
L 136.524419 153.681437 
L 136.876921 138.278348 
L 137.229424 162.70287 
L 137.581926 160.686512 
L 137.934428 160.389203 
L 138.28693 171.672174 
L 138.639433 171.023669 
L 138.991935 163.035351 
L 139.344437 162.769399 
L 139.696939 156.962785 
L 140.401944 154.981168 
L 140.754446 141.625628 
L 141.106948 141.001844 
L 141.45945 141.653435 
L 141.811953 150.900836 
L 142.164455 144.808824 
L 142.516957 147.7774 
L 142.869459 151.882486 
L 143.221961 149.854016 
L 143.574464 146.841242 
L 143.926966 152.959832 
L 144.279468 150.626854 
L 144.984473 164.525181 
L 145.336975 145.528571 
L 145.689477 150.708979 
L 146.041979 151.029183 
L 146.394481 151.920247 
L 146.746984 156.285445 
L 147.099486 150.546487 
L 147.451988 166.526109 
L 147.80449 165.527669 
L 148.509495 153.401548 
L 148.861997 155.11426 
L 149.214499 143.862546 
L 149.567001 157.040828 
L 149.919504 157.597055 
L 150.272006 170.979571 
L 150.624508 166.604551 
L 150.97701 168.116413 
L 151.329513 165.393084 
L 152.034517 171.052803 
L 152.387019 163.562444 
L 153.444526 157.876379 
L 153.797028 157.902725 
L 154.14953 165.872793 
L 154.502032 161.149033 
L 154.854535 159.940519 
L 155.559539 156.029746 
L 155.912041 182.323398 
L 156.264544 189.436711 
L 156.617046 189.18151 
L 156.969548 184.10745 
L 157.32205 175.00439 
L 158.027055 177.895353 
L 158.379557 174.946521 
L 158.732059 175.247546 
L 159.084561 181.570104 
L 159.437064 181.77394 
L 159.789566 188.611945 
L 160.142068 184.062157 
L 160.49457 184.200293 
L 160.847072 170.598677 
L 161.199575 167.876542 
L 161.552077 172.312019 
L 161.904579 172.987866 
L 162.257081 171.990985 
L 162.609584 176.642343 
L 162.962086 177.398091 
L 163.314588 179.158485 
L 163.66709 178.580558 
L 164.019592 176.628174 
L 164.372095 179.135324 
L 164.724597 180.005682 
L 165.077099 158.286738 
L 165.429601 152.039071 
L 165.782104 152.854281 
L 166.134606 155.426401 
L 166.487108 144.529467 
L 166.83961 139.842439 
L 167.192112 129.799371 
L 167.544615 130.024344 
L 167.897117 134.521771 
L 168.249619 132.108393 
L 168.602121 140.367872 
L 168.954624 142.551268 
L 169.307126 127.804548 
L 169.659628 124.779099 
L 170.01213 127.928881 
L 170.364632 133.553161 
L 171.069637 134.859827 
L 171.422139 141.340431 
L 171.774641 124.130892 
L 172.127144 122.596998 
L 172.479646 129.174359 
L 172.832148 124.218426 
L 173.18465 116.501436 
L 173.537152 122.875791 
L 173.889655 105.905493 
L 174.242157 111.015191 
L 174.594659 114.246567 
L 174.947161 92.182565 
L 175.299664 82.233402 
L 175.652166 124.016847 
L 176.004668 136.111644 
L 176.35717 133.668767 
L 176.709672 124.887006 
L 177.062175 136.619425 
L 177.414677 107.732217 
L 177.767179 120.103253 
L 178.472184 137.845392 
L 178.824686 134.422159 
L 179.177188 121.6476 
L 179.52969 116.509167 
L 179.882192 132.717909 
L 180.234695 128.415591 
L 180.587197 129.098705 
L 180.939699 106.574206 
L 181.292201 104.056902 
L 181.644704 96.164115 
L 181.997206 94.721205 
L 182.349708 113.927491 
L 182.70221 119.599022 
L 183.407215 113.702817 
L 183.759717 112.522938 
L 184.112219 114.04522 
L 184.464721 123.552235 
L 184.817223 123.24016 
L 185.169726 104.599391 
L 185.522228 125.441042 
L 185.87473 133.420667 
L 186.227232 109.685663 
L 186.579735 101.108335 
L 186.932237 100.660281 
L 187.284739 103.592589 
L 187.637241 95.290073 
L 187.989743 123.425812 
L 188.342246 115.359451 
L 188.694748 117.65958 
L 189.04725 105.226926 
L 189.399752 85.010884 
L 189.752255 90.790987 
L 190.104757 100.145167 
L 190.457259 106.236316 
L 190.809761 110.084176 
L 191.162263 109.272483 
L 191.514766 108.743068 
L 192.21977 91.66984 
L 193.277277 76.396492 
L 193.629779 76.906497 
L 193.982281 77.14159 
L 194.334783 84.151841 
L 194.687286 83.798388 
L 195.039788 97.590368 
L 195.39229 100.1015 
L 195.744792 119.759324 
L 196.097295 124.150271 
L 196.449797 119.461683 
L 196.802299 127.399598 
L 198.212308 149.267926 
L 198.56481 144.989035 
L 198.917312 154.286739 
L 199.269815 151.610329 
L 199.622317 156.24045 
L 199.974819 180.400048 
L 200.327321 185.450516 
L 200.679823 179.03402 
L 201.032326 176.138842 
L 201.384828 177.885664 
L 201.73733 187.668885 
L 202.089832 206.136179 
L 202.442335 194.330296 
L 202.794837 208.692438 
L 203.147339 191.705417 
L 203.499841 190.539907 
L 203.852343 182.999609 
L 204.204846 184.772048 
L 204.557348 188.907727 
L 204.90985 187.762325 
L 205.262352 189.831508 
L 205.614855 177.401509 
L 205.967357 171.43509 
L 206.319859 147.494658 
L 206.672361 142.818978 
L 207.024863 155.026859 
L 207.377366 146.03383 
L 207.729868 132.768113 
L 208.434872 116.586414 
L 208.787375 109.826984 
L 209.139877 108.561696 
L 209.492379 114.10727 
L 209.844881 108.238704 
L 210.549886 106.585488 
L 210.902388 95.347345 
L 211.25489 74.426854 
L 211.607392 74.903843 
L 212.312397 59.598375 
L 212.664899 64.597843 
L 213.017401 80.861468 
L 213.369903 73.745732 
L 213.722406 97.249425 
L 214.074908 98.267343 
L 214.42741 103.18379 
L 214.779912 94.260475 
L 215.132414 95.813848 
L 215.484917 83.39805 
L 215.837419 51.825805 
L 216.542423 66.3736 
L 216.894926 93.859175 
L 217.247428 96.646611 
L 217.59993 75.304579 
L 217.952432 76.546109 
L 218.304934 89.883664 
L 218.657437 75.148392 
L 219.009939 72.897207 
L 219.362441 73.538279 
L 219.714943 72.179518 
L 220.067446 38.714185 
L 220.419948 43.025695 
L 220.77245 49.266858 
L 221.124952 44.445743 
L 221.477454 44.79372 
L 221.829957 67.333283 
L 222.182459 61.897741 
L 222.534961 67.768761 
L 222.887463 61.640183 
L 223.239966 60.112129 
L 223.592468 62.446269 
L 223.94497 62.915094 
L 224.297472 61.177662 
L 224.649974 71.508681 
L 225.002477 51.374964 
L 226.059983 72.816542 
L 226.412486 102.62325 
L 226.764988 84.215948 
L 227.469992 81.745298 
L 227.822494 72.778482 
L 228.174997 68.179087 
L 228.527499 59.143751 
L 228.880001 58.002828 
L 229.232503 79.353488 
L 229.585006 83.160634 
L 229.937508 78.082559 
L 230.29001 81.589211 
L 230.642512 106.197294 
L 230.995014 111.559372 
L 231.347517 108.49135 
L 231.700019 112.128672 
L 232.052521 117.947764 
L 232.405023 120.89726 
L 232.757526 120.927223 
L 233.110028 125.810621 
L 233.46253 135.572274 
L 233.815032 129.888962 
L 234.167534 129.296037 
L 234.872539 136.676663 
L 235.225041 126.75086 
L 235.577543 153.19237 
L 235.930046 159.865362 
L 236.282548 154.028651 
L 236.63505 154.533612 
L 236.987552 125.281272 
L 237.340054 143.783805 
L 237.692557 125.849942 
L 238.045059 126.690237 
L 239.102566 175.238952 
L 239.455068 175.69112 
L 240.160072 188.944493 
L 240.512574 193.823876 
L 240.865077 189.967089 
L 241.217579 197.690119 
L 241.570081 171.878067 
L 241.922583 172.386446 
L 242.275086 171.540476 
L 242.627588 167.014247 
L 242.98009 159.18623 
L 243.332592 159.390597 
L 243.685094 155.107424 
L 244.037597 153.109814 
L 244.390099 161.050682 
L 244.742601 157.986177 
L 245.095103 160.246787 
L 245.447605 158.524718 
L 245.800108 159.360468 
L 246.15261 153.573198 
L 246.505112 144.505244 
L 246.857614 148.686117 
L 247.210117 144.678055 
L 247.562619 171.161241 
L 247.915121 168.733329 
L 248.267623 191.133363 
L 248.620125 163.692948 
L 248.972628 161.856303 
L 249.32513 155.13032 
L 249.677632 158.804673 
L 250.030134 159.201195 
L 250.382637 149.536301 
L 250.735139 149.251136 
L 251.087641 156.675961 
L 251.440143 180.786948 
L 251.792645 173.195252 
L 252.145148 191.041217 
L 252.49765 190.052864 
L 252.850152 190.550989 
L 253.202654 193.359032 
L 253.907659 208.005841 
L 254.260161 209.865879 
L 254.612663 206.571823 
L 254.965165 206.339219 
L 255.317668 210.531506 
L 255.67017 207.20815 
L 256.022672 198.591535 
L 256.375174 201.274914 
L 256.727677 202.257891 
L 257.432681 211.49046 
L 257.785183 219.64837 
L 258.137685 211.797358 
L 258.490188 214.703951 
L 258.84269 203.040948 
L 259.195192 224.984932 
L 259.547694 217.462619 
L 259.900197 224.187673 
L 260.252699 219.437533 
L 260.605201 239.640235 
L 260.957703 236.220652 
L 261.310205 237.398473 
L 262.367712 203.813852 
L 262.720214 204.442581 
L 263.072717 204.343533 
L 263.425219 201.261575 
L 263.777721 203.015697 
L 264.130223 203.193153 
L 264.482725 194.647348 
L 264.835228 169.359304 
L 265.18773 155.566661 
L 265.540232 154.050651 
L 265.892734 157.299016 
L 266.245237 162.079284 
L 266.597739 172.488314 
L 266.950241 168.049286 
L 267.302743 166.573393 
L 267.655245 169.41485 
L 268.007748 153.835865 
L 268.36025 146.927415 
L 268.712752 154.786092 
L 269.065254 151.830855 
L 269.417757 154.153415 
L 269.770259 159.198209 
L 270.122761 161.937067 
L 270.475263 152.330739 
L 270.827765 154.573828 
L 271.180268 127.253664 
L 271.53277 111.026041 
L 271.885272 110.917902 
L 272.237774 121.333236 
L 272.590277 99.375814 
L 272.942779 105.360914 
L 273.295281 89.121511 
L 274.000285 79.158711 
L 274.352788 53.589285 
L 274.70529 46.543861 
L 275.057792 36.878402 
L 275.410294 60.882411 
L 275.762796 70.735214 
L 276.115299 72.988788 
L 276.467801 79.914393 
L 276.820303 77.672598 
L 277.172805 71.154399 
L 277.525308 87.14527 
L 277.87781 89.817002 
L 278.230312 80.853438 
L 278.582814 90.122639 
L 278.935316 91.004147 
L 279.287819 89.919567 
L 279.640321 97.083051 
L 279.992823 94.803993 
L 280.345325 88.699538 
L 280.697828 87.489531 
L 281.05033 95.7513 
L 281.402832 97.280384 
L 281.755334 92.55367 
L 282.107836 94.246506 
L 282.460339 85.928494 
L 282.812841 87.550519 
L 283.165343 94.328465 
L 283.517845 89.266483 
L 283.870348 108.980251 
L 284.22285 110.861393 
L 284.927854 161.323038 
L 285.280356 162.228868 
L 285.632859 188.654849 
L 285.985361 167.796408 
L 286.337863 175.125835 
L 286.690365 165.519075 
L 287.39537 138.045844 
L 287.747872 138.308113 
L 288.100374 135.360242 
L 288.452876 134.845095 
L 288.805379 120.2974 
L 289.157881 119.770506 
L 289.510383 123.049033 
L 289.862885 132.15289 
L 290.215388 124.511886 
L 290.56789 132.672384 
L 291.272894 129.111911 
L 291.625396 135.325368 
L 291.977899 103.748909 
L 292.330401 112.842048 
L 292.682903 134.300913 
L 293.035405 140.791803 
L 293.387908 133.728162 
L 293.74041 144.637142 
L 294.092912 123.220517 
L 294.445414 117.532726 
L 294.797916 122.187999 
L 295.150419 105.63911 
L 295.502921 101.487105 
L 295.855423 80.354914 
L 296.207925 72.933906 
L 296.560428 84.824104 
L 296.91293 78.679234 
L 297.265432 78.795072 
L 297.617934 106.659782 
L 297.970436 118.670861 
L 298.322939 122.560863 
L 298.675441 112.79566 
L 299.027943 110.163514 
L 299.380445 125.230802 
L 300.08545 115.235318 
L 300.437952 103.142611 
L 300.790454 104.277794 
L 301.142956 101.775853 
L 301.495459 110.080659 
L 301.847961 111.767024 
L 302.200463 105.996876 
L 302.552965 134.213114 
L 302.905468 115.353611 
L 303.25797 104.853664 
L 303.962974 91.728406 
L 304.315476 88.18469 
L 304.667979 98.733779 
L 305.020481 99.064336 
L 305.372983 94.12871 
L 305.725485 74.938352 
L 306.077987 67.539873 
L 306.43049 93.321032 
L 306.782992 77.539141 
L 307.487996 91.901217 
L 307.840499 95.63095 
L 308.193001 79.447824 
L 308.545503 74.770319 
L 308.898005 72.920766 
L 309.250507 73.637426 
L 309.60301 77.359362 
L 310.308014 87.553539 
L 310.660516 88.077347 
L 311.013019 91.126919 
L 311.718023 73.916054 
L 312.070525 75.025321 
L 312.423027 53.289189 
L 312.77553 49.549169 
L 313.128032 39.322706 
L 313.480534 63.282384 
L 313.833036 74.286794 
L 314.185539 80.605337 
L 314.890543 102.457639 
L 315.243045 121.41483 
L 315.595547 128.123525 
L 315.94805 110.139125 
L 316.653054 128.573935 
L 317.005556 124.282201 
L 317.358059 138.62178 
L 317.710561 135.005562 
L 318.063063 134.673843 
L 318.415565 138.487692 
L 318.768067 130.229407 
L 319.473072 121.140914 
L 319.825574 117.899617 
L 320.178076 112.987815 
L 320.530579 102.861993 
L 320.883081 98.69343 
L 321.235583 96.887378 
L 321.940587 88.448817 
L 322.29309 94.051961 
L 322.645592 85.170887 
L 322.998094 109.73016 
L 323.350596 115.082814 
L 323.703099 129.813706 
L 324.760605 109.995481 
L 325.113107 112.576925 
L 325.46561 100.831267 
L 325.818112 100.322557 
L 326.170614 100.286123 
L 326.875619 131.9974 
L 327.228121 132.699095 
L 327.580623 140.462706 
L 327.933125 140.508795 
L 328.285627 143.963053 
L 328.63813 144.658975 
L 328.990632 121.186605 
L 329.343134 120.951944 
L 329.695636 138.436792 
L 330.048139 144.568223 
L 330.400641 143.666906 
L 330.753143 145.460614 
L 331.105645 149.394548 
L 331.458147 131.034033 
L 331.81065 132.392462 
L 332.163152 134.435864 
L 332.868156 129.376337 
L 333.573161 146.009209 
L 333.925663 144.778795 
L 334.278165 135.200273 
L 334.630667 138.435497 
L 334.98317 143.500201 
L 335.335672 152.025798 
L 335.688174 143.189586 
L 336.040676 152.475212 
L 336.745681 148.235674 
L 337.098183 155.835665 
L 337.450685 149.320221 
L 337.803187 147.714421 
L 338.15569 151.498407 
L 338.508192 141.920349 
L 338.860694 147.517122 
L 339.213196 146.015314 
L 339.565698 171.391655 
L 339.918201 170.576976 
L 340.270703 182.558059 
L 340.623205 178.521295 
L 340.975707 159.763328 
L 341.32821 159.685152 
L 341.680712 169.290584 
L 342.033214 186.531446 
L 342.385716 186.374828 
L 342.738218 184.89429 
L 343.090721 201.308361 
L 343.443223 206.633508 
L 344.148227 192.974223 
L 344.50073 172.160577 
L 344.853232 181.93454 
L 345.205734 184.769393 
L 345.558236 190.817472 
L 345.910738 181.594858 
L 346.263241 189.814586 
L 346.615743 184.302492 
L 346.968245 184.405124 
L 347.320747 179.118667 
L 347.67325 180.335344 
L 348.025752 180.338828 
L 348.378254 186.244424 
L 348.730756 194.351599 
L 349.083258 187.936894 
L 349.435761 183.88334 
L 349.788263 185.774039 
L 350.493267 166.183142 
L 350.84577 145.503784 
L 351.198272 148.964844 
L 351.550774 176.16114 
L 351.903276 176.185462 
L 352.255778 163.493559 
L 352.608281 163.124876 
L 352.960783 165.598778 
L 353.313285 173.909855 
L 354.01829 167.254483 
L 354.370792 171.434261 
L 354.723294 177.606539 
L 355.075796 190.525107 
L 356.133303 158.712394 
L 356.485805 158.523125 
L 356.838307 158.663119 
L 357.19081 154.476804 
L 357.543312 156.078357 
L 357.895814 163.77003 
L 358.248316 158.455202 
L 358.953321 142.248517 
L 359.305823 122.003209 
L 359.658325 140.868553 
L 360.010827 140.625463 
L 360.36333 139.83494 
L 360.715832 147.220975 
L 361.068334 159.435326 
L 361.420836 152.836064 
L 361.773338 161.352139 
L 362.478343 147.016575 
L 362.830845 155.150793 
L 363.183347 154.573098 
L 363.888352 150.94009 
L 364.240854 153.642116 
L 364.593356 155.315242 
L 364.945858 149.224292 
L 365.298361 138.020791 
L 365.650863 144.353968 
L 366.003365 152.942147 
L 366.355867 153.129026 
L 366.708369 153.69617 
L 367.060872 162.573428 
L 367.413374 162.093851 
L 367.765876 175.314474 
L 368.118378 173.040558 
L 368.470881 175.028513 
L 369.175885 187.812629 
L 369.528387 187.694568 
L 369.880889 186.300236 
L 370.233392 159.169905 
L 370.585894 141.574495 
L 370.938396 144.493664 
L 371.290898 141.499836 
L 371.643401 136.556446 
L 371.995903 145.85133 
L 372.348405 138.599847 
L 373.053409 148.076235 
L 373.405912 144.433737 
L 374.110916 154.092924 
L 374.463418 151.493197 
L 374.815921 157.629971 
L 375.168423 160.782971 
L 375.873427 174.224418 
L 376.225929 178.980033 
L 376.578432 169.404696 
L 377.283436 183.80095 
L 377.635938 182.479186 
L 378.340943 171.233677 
L 378.693445 172.188218 
L 379.045947 166.147671 
L 379.398449 163.188618 
L 379.750952 166.499962 
L 380.103454 153.088976 
L 380.455956 159.119402 
L 380.808458 183.839142 
L 381.160961 195.039856 
L 381.513463 170.610755 
L 381.865965 169.984714 
L 382.218467 180.55504 
L 382.570969 178.812299 
L 382.923472 169.158156 
L 383.275974 174.115715 
L 383.628476 175.331496 
L 384.333481 181.614999 
L 384.685983 182.862933 
L 385.038485 185.315499 
L 385.390987 170.013582 
L 385.743489 167.596421 
L 386.095992 172.799393 
L 386.448494 163.321611 
L 387.153498 161.033328 
L 387.506001 153.864003 
L 387.858503 154.639628 
L 388.211005 146.532851 
L 388.563507 152.374506 
L 389.268512 104.411881 
L 389.621014 106.846861 
L 389.973516 100.732817 
L 390.326018 99.143077 
L 390.678521 118.671956 
L 391.031023 98.750702 
L 391.031023 98.750702 
" clip-path="url(#pe2445ea18a)" style="fill: none; stroke: #ee854a; stroke-width: 1.5; stroke-linecap: square"/>
   </g>
   <g id="patch_3">
    <path d="M 50.14375 273.312 
L 50.14375 7.2 
" style="fill: none; stroke: #000000; stroke-width: 0.8; stroke-linejoin: miter; stroke-linecap: square"/>
   </g>
   <g id="patch_4">
    <path d="M 407.26375 273.312 
L 407.26375 7.2 
" style="fill: none; stroke: #000000; stroke-width: 0.8; stroke-linejoin: miter; stroke-linecap: square"/>
   </g>
   <g id="patch_5">
    <path d="M 50.14375 273.312 
L 407.26375 273.312 
" style="fill: none; stroke: #000000; stroke-width: 0.8; stroke-linejoin: miter; stroke-linecap: square"/>
   </g>
   <g id="patch_6">
    <path d="M 50.14375 7.2 
L 407.26375 7.2 
" style="fill: none; stroke: #000000; stroke-width: 0.8; stroke-linejoin: miter; stroke-linecap: square"/>
   </g>
   <g id="legend_1">
    <g id="patch_7">
     <path d="M 290.818438 44.55625 
L 400.26375 44.55625 
Q 402.26375 44.55625 402.26375 42.55625 
L 402.26375 14.2 
Q 402.26375 12.2 400.26375 12.2 
L 290.818438 12.2 
Q 288.818438 12.2 288.818438 14.2 
L 288.818438 42.55625 
Q 288.818438 44.55625 290.818438 44.55625 
z
" style="fill: #ffffff; opacity: 0.8; stroke: #cccccc; stroke-linejoin: miter"/>
    </g>
    <g id="line2d_14">
     <path d="M 292.818438 20.298437 
L 302.818438 20.298437 
L 312.818438 20.298437 
" style="fill: none; stroke: #4878d0; stroke-width: 1.5; stroke-linecap: square"/>
    </g>
    <g id="text_14">
     <!-- without lineage -->
     <g transform="translate(320.818438 23.798437) scale(0.1 -0.1)">
      <defs>
       <path id="DejaVuSans-77" d="M 269 3500 
L 844 3500 
L 1563 769 
L 2278 3500 
L 2956 3500 
L 3675 769 
L 4391 3500 
L 4966 3500 
L 4050 0 
L 3372 0 
L 2619 2869 
L 1863 0 
L 1184 0 
L 269 3500 
z
" transform="scale(0.015625)"/>
       <path id="DejaVuSans-68" d="M 3513 2113 
L 3513 0 
L 2938 0 
L 2938 2094 
Q 2938 2591 2744 2837 
Q 2550 3084 2163 3084 
Q 1697 3084 1428 2787 
Q 1159 2491 1159 1978 
L 1159 0 
L 581 0 
L 581 4863 
L 1159 4863 
L 1159 2956 
Q 1366 3272 1645 3428 
Q 1925 3584 2291 3584 
Q 2894 3584 3203 3211 
Q 3513 2838 3513 2113 
z
" transform="scale(0.015625)"/>
       <path id="DejaVuSans-6c" d="M 603 4863 
L 1178 4863 
L 1178 0 
L 603 0 
L 603 4863 
z
" transform="scale(0.015625)"/>
      </defs>
      <use xlink:href="#DejaVuSans-77"/>
      <use xlink:href="#DejaVuSans-69" x="81.787109"/>
      <use xlink:href="#DejaVuSans-74" x="109.570312"/>
      <use xlink:href="#DejaVuSans-68" x="148.779297"/>
      <use xlink:href="#DejaVuSans-6f" x="212.158203"/>
      <use xlink:href="#DejaVuSans-75" x="273.339844"/>
      <use xlink:href="#DejaVuSans-74" x="336.71875"/>
      <use xlink:href="#DejaVuSans-20" x="375.927734"/>
      <use xlink:href="#DejaVuSans-6c" x="407.714844"/>
      <use xlink:href="#DejaVuSans-69" x="435.498047"/>
      <use xlink:href="#DejaVuSans-6e" x="463.28125"/>
      <use xlink:href="#DejaVuSans-65" x="526.660156"/>
      <use xlink:href="#DejaVuSans-61" x="588.183594"/>
      <use xlink:href="#DejaVuSans-67" x="649.462891"/>
      <use xlink:href="#DejaVuSans-65" x="712.939453"/>
     </g>
    </g>
    <g id="line2d_15">
     <path d="M 292.818438 34.976562 
L 302.818438 34.976562 
L 312.818438 34.976562 
" style="fill: none; stroke: #ee854a; stroke-width: 1.5; stroke-linecap: square"/>
    </g>
    <g id="text_15">
     <!-- with lineage -->
     <g transform="translate(320.818438 38.476562) scale(0.1 -0.1)">
      <use xlink:href="#DejaVuSans-77"/>
      <use xlink:href="#DejaVuSans-69" x="81.787109"/>
      <use xlink:href="#DejaVuSans-74" x="109.570312"/>
      <use xlink:href="#DejaVuSans-68" x="148.779297"/>
      <use xlink:href="#DejaVuSans-20" x="212.158203"/>
      <use xlink:href="#DejaVuSans-6c" x="243.945312"/>
      <use xlink:href="#DejaVuSans-69" x="271.728516"/>
      <use xlink:href="#DejaVuSans-6e" x="299.511719"/>
      <use xlink:href="#DejaVuSans-65" x="362.890625"/>
      <use xlink:href="#DejaVuSans-61" x="424.414062"/>
      <use xlink:href="#DejaVuSans-67" x="485.693359"/>
      <use xlink:href="#DejaVuSans-65" x="549.169922"/>
     </g>
    </g>
   </g>
  </g>
 </g>
 <defs>
  <clipPath id="pe2445ea18a">
   <rect x="50.14375" y="7.2" width="357.12" height="266.112"/>
  </clipPath>
 </defs>
</svg>
